<?xml version="1.0" encoding="iso-8859-1"?>
<!-- Generator: Adobe Illustrator 19.0.0, SVG Export Plug-In . SVG Version: 6.00 Build 0)  -->
<svg version="1.1" id="Capa_1" xmlns="http://www.w3.org/2000/svg" xmlns:xlink="http://www.w3.org/1999/xlink" x="0px" y="0px"
	 viewBox="0 0 512 512" style="enable-background:new 0 0 512 512;" xml:space="preserve">
<circle style="fill:#00AD95;" cx="256" cy="256" r="256"/>
<path style="fill:#006659;" d="M512,256c0-18.997-2.087-37.504-6.013-55.322L377.026,71.729c-8.671-9.252-20.976-15.06-34.578-15.06
	H169.552c-26.096,0-47.448,21.352-47.448,47.448v50.684c0,13.214,5.481,25.204,14.276,33.827l39.373,39.381
	c-13.768,3.344-19.683,17.527-41.801,7.603c0,0-0.479,11.599,6.173,22.225c-2.376,5.764-1.973,11.048-1.973,11.048l0.675,12.278
	c-4.091,1.294-6.87,5.338-6.392,9.759l0.804,7.423c0.272,2.514,1.548,4.686,3.383,6.163l11.033,9.627
	c3.71,7.383,7.943,12.846,12.27,16.879l5.868,5.873v18.163h-18.467c-14.749,0-26.705,11.956-26.705,26.705v56.901l62.928,62.928
	C206.523,508.351,230.834,512,256,512C397.385,512,512,397.385,512,256z"/>
<path style="fill:#FFFFFF;" d="M342.448,56.67H169.552c-26.096,0-47.448,21.352-47.448,47.448v50.684
	c0,26.096,21.352,47.448,47.448,47.448h12.589v16l20.353-16h107.012l20.353,16v-16h12.589c26.096,0,47.448-21.352,47.448-47.448
	v-50.684C389.896,78.021,368.544,56.67,342.448,56.67z"/>
<path style="fill:#FFF5CB;" d="M389.9,104.12v50.68c0,26.1-21.36,47.45-47.45,47.45h-12.59v16l-20.35-16H256V56.67h86.45
	C368.54,56.67,389.9,78.02,389.9,104.12z"/>
<circle style="fill:#FFE670;" cx="256" cy="130.29" r="50.942"/>
<path style="fill:#FFD400;" d="M306.943,130.286c0,28.137-22.81,50.941-50.947,50.941V79.345
	C284.134,79.345,306.943,102.148,306.943,130.286z"/>
<circle style="fill:#AB3CCC;" cx="236.21" cy="118.34" r="8.751"/>
<circle style="fill:#681F7B;" cx="275.79" cy="118.34" r="8.751"/>
<path style="fill:#AB3CCC;" d="M255.999,163.236c13.151,0,24.354-9.027,28.61-21.669h-57.22
	C231.645,154.209,242.848,163.236,255.999,163.236z"/>
<path style="fill:#681F7B;" d="M284.611,141.567c-4.256,12.644-15.462,21.67-28.614,21.67v-21.67H284.611z"/>
<rect x="312.86" y="348.04" style="fill:#FFC473;" width="31.866" height="40.2"/>
<rect x="328.79" y="348.04" style="fill:#FFAA20;" width="15.935" height="40.2"/>
<path style="fill:#FFDBA9;" d="M369.807,295.009c-1.713-25.211-23.213-39.52-41.019-39.52s-39.306,14.309-41.019,39.52
	c-4.608,0.863-7.877,5.169-7.365,9.904l0.793,7.326c0.538,4.97,5.045,8.596,10.015,8.057l0.856-0.093
	c10.174,26.482,26.592,33.3,36.72,34.849c10.128-1.549,26.546-8.367,36.719-34.849l0.856,0.093c4.97,0.538,9.476-3.088,10.015-8.057
	l0.793-7.326C377.685,300.178,374.415,295.872,369.807,295.009z"/>
<path style="fill:#FFC473;" d="M377.174,304.912l-0.794,7.327c-0.54,4.969-5.045,8.594-10.014,8.057l-0.859-0.093
	c-10.171,26.482-26.59,33.298-36.718,34.847v-99.56c17.563,0,38.722,13.921,40.94,38.496c0.032,0.354,0.057,0.694,0.079,1.023
	C374.415,295.871,377.685,300.179,377.174,304.912z"/>
<path style="fill:#E67500;" d="M329.669,236.65c-54.06,0-44.081,51.292-44.081,51.292l0.003,0.002
	c0.469,5.09,1.664,15.776,3.827,21.174h5.417v-16.44c1.248-5.029,3.177-9.026,5.378-12.198c6.911,2.249,16.428,4.177,28.754,4.177
	c12.346,0,21.875-1.935,28.789-4.188c2.204,3.173,4.136,7.174,5.385,12.208v16.44h5.417c2.163-5.398,3.359-16.083,3.827-21.174
	l0.003-0.002C372.387,287.941,379.298,236.65,329.669,236.65z"/>
<path style="fill:#C06200;" d="M372.712,281.708c0,3.798-0.325,6.237-0.325,6.237c-0.476,5.087-1.661,15.772-3.833,21.172h-5.412
	v-16.445c-1.254-5.029-3.182-9.024-5.389-12.206c-6.91,2.253-16.445,4.193-28.791,4.193h-0.174v-48.001
	c0.29-0.012,0.592-0.012,0.883-0.012C368.484,236.645,372.712,268.026,372.712,281.708z"/>
<polygon style="fill:#FFA91F;" points="328.791,298.115 328.791,326.51 337.081,326.51 337.081,306.404 355.139,306.404 
	355.139,298.115 "/>
<rect x="301.82" y="298.12" style="fill:#FFC473;" width="21.14" height="8.289"/>
<rect x="165.79" y="335.29" style="fill:#FFAA20;" width="31.34" height="39.529"/>
<rect x="181.47" y="335.29" style="fill:#FF8900;" width="15.663" height="39.529"/>
<path style="fill:#FFC473;" d="M223.025,280.887c-1.735-25.546-23.522-40.045-41.564-40.045s-39.828,14.499-41.564,40.045
	c-4.669,0.875-7.982,5.238-7.462,10.035l0.804,7.423c0.545,5.036,5.112,8.71,10.148,8.164l0.867-0.094
	c10.309,26.834,26.945,33.743,37.207,35.312c10.263-1.569,26.899-8.478,37.207-35.312l0.867,0.094
	c5.036,0.546,9.602-3.128,10.148-8.164l0.804-7.423C231.008,286.125,227.694,281.762,223.025,280.887z"/>
<path style="fill:#FFAA20;" d="M230.49,290.922l-0.805,7.425c-0.547,5.035-5.112,8.708-10.147,8.164l-0.87-0.094
	c-10.307,26.834-26.943,33.74-37.206,35.31V240.843c17.796,0,39.236,14.106,41.484,39.008c0.033,0.359,0.058,0.703,0.08,1.037
	C227.695,281.762,231.008,286.126,230.49,290.922z"/>
<path style="fill:#2A2A2C;" d="M198.363,243.369v21.208c0,0,15.204,4.899,17.089,15.767v15.981h7.086l1.508-27.44
	C224.046,268.886,225.903,244.676,198.363,243.369z"/>
<path style="fill:#3C3B41;" d="M163.835,243.369v21.208c0,0-15.205,4.899-17.089,15.767v15.981h-7.086l-1.508-27.44
	C138.152,268.886,136.295,244.676,163.835,243.369z"/>
<polygon style="fill:#FF8900;" points="204.183,291.744 181.462,291.744 181.462,318.464 189.533,318.464 189.533,299.233 
	204.183,299.233 "/>
<rect x="155.12" y="291.74" style="fill:#FFAA20;" width="19.802" height="7.489"/>
<path style="fill:#56545B;" d="M217.621,251.71c0,0-7.765-24.387-36.159-24.387c-18.239,0-22.565,19.482-47.51,8.29
	c0,0-1.495,35.876,36.959,39.241C191.437,276.65,208.808,271.091,217.621,251.71z"/>
<path style="fill:#3B3A40;" d="M217.622,251.709c-7.316,16.087-20.531,22.653-36.548,23.395v-47.777
	c0.129-0.004,0.257-0.004,0.39-0.004C209.858,227.323,217.622,251.709,217.622,251.709z"/>
<path style="fill:#802897;" d="M242.302,438.656H120.621v-56.901c0-14.749,11.956-26.705,26.705-26.705h68.27
	c14.749,0,26.705,11.956,26.705,26.705L242.302,438.656L242.302,438.656z"/>
<path style="fill:#451152;" d="M242.302,381.756v56.9h-60.84v-83.61h34.13C230.342,355.046,242.302,367.006,242.302,381.756z"/>
<path style="fill:#D9D9DB;" d="M395.378,438.656H262.204V398.45c0-17.866,14.483-32.35,32.35-32.35h68.474
	c17.866,0,32.35,14.483,32.35,32.35L395.378,438.656L395.378,438.656z"/>
<path style="fill:#AEADB3;" d="M395.379,398.454v40.2h-66.59v-72.55h34.24C380.899,366.104,395.379,380.584,395.379,398.454z"/>
<g>
</g>
<g>
</g>
<g>
</g>
<g>
</g>
<g>
</g>
<g>
</g>
<g>
</g>
<g>
</g>
<g>
</g>
<g>
</g>
<g>
</g>
<g>
</g>
<g>
</g>
<g>
</g>
<g>
</g>
</svg>
